{"title":"NRL Grand Final 2016 - Storm v Sharks","uid":15973823,"size":1394333446,"categoryP":"video","categoryS":"tv_shows","magnet":"?xt=urn:btih:b606a0018a148ebb58f4d6f4f62d55ebc9b8d306&amp;dn=NRL+Grand+Final+2016+-+Storm+v+Sharks&amp;tr=udp%3A%2F%2Ftracker.leechers-paradise.org%3A6969&amp;tr=udp%3A%2F%2Fzer0day.ch%3A1337&amp;tr=udp%3A%2F%2Fopen.demonii.com%3A1337&amp;tr=udp%3A%2F%2Ftracker.coppersurfer.tk%3A6969&amp;tr=udp%3A%2F%2Fexodus.desync.com%3A6969","seeders":8,"leechers":2,"uploader":"Bullrout","files":1,"time":1475806957,"description":"NRL Grand Final 2016 - Storm v Sharks\r\n\r\nComplete name                            : NRL Grand Final 2016 - Storm v Sharks.mp4\r\nFormat                                   : MPEG-4\r\nFormat profile                           : Base Media / Version 2\r\nCodec ID                                 : mp42 (mp42/isom/avc1)\r\nFile size                                : 1.30 GiB\r\nDuration                                 : 1 h 55 min\r\nOverall bit rate mode                    : Variable\r\nOverall bit rate                         : 1 613 kb/s\r\n\r\nVideo\r\nID                                       : 2\r\nFormat                                   : AVC\r\nFormat/Info                              : Advanced Video Codec\r\nFormat profile                           :   \r\nFormat settings, CABAC                   : Yes\r\nFormat settings, ReFrames                : 3 frames\r\nCodec ID                                 : avc1\r\nCodec ID/Info                            : Advanced Video Coding\r\nDuration                                 : 1 h 55 min\r\nBit rate mode                            : Variable\r\nBit rate                                 : 1 481 kb/s\r\nMaximum bit rate                         : 1 500 kb/s\r\nWidth                                    : 720 pixels\r\nHeight                                   : 404 pixels\r\nDisplay aspect ratio                     : 16:9\r\nOriginal display aspect ratio            : 16:9\r\nFrame rate mode                          : Constant\r\nFrame rate                               : 25.000 FPS\r\nStandard                                 : PAL\r\nColor space                              : YUV\r\nChroma subsampling                       : 4:2:0\r\nBit depth                                : 8 bits\r\nScan type                                : Progressive\r\nBits/(Pixel*Frame)                       : 0.204\r\nStream size                              : 1.19 GiB (92%)\r\nWriting library                          : x264 core 112\r\nColor range                              : Limited\r\nColor primaries                          : BT.601 PAL\r\nTransfer characteristics                 : BT.470 System B, BT.470 System G\r\nMatrix coefficients                      : BT.601\r\n\r\nAudio\r\nID                                       : 1\r\nFormat                                   : AAC\r\nFormat/Info                              : Advanced Audio Codec\r\nFormat profile                           : LC\r\nCodec ID                                 : 40\r\nDuration                                 : 1 h 55 min\r\nBit rate mode                            : Variable\r\nBit rate                                 : 128 kb/s\r\nMaximum bit rate                         : 576 kb/s\r\nChannel(s)                               : 2 channels\r\nChannel positions                        : Front: L R\r\nSampling rate                            : 48.0 kHz\r\nFrame rate                               : 46.875 FPS (1024 spf)\r\nCompression mode                         : Lossy\r\nStream size                              : 106 MiB (8%)","torrent":{"xt":"urn:btih:b606a0018a148ebb58f4d6f4f62d55ebc9b8d306","amp;dn":"NRL+Grand+Final+2016+-+Storm+v+Sharks","amp;tr":["udp%3A%2F%2Ftracker.leechers-paradise.org%3A6969","udp%3A%2F%2Fzer0day.ch%3A1337","udp%3A%2F%2Fopen.demonii.com%3A1337","udp%3A%2F%2Ftracker.coppersurfer.tk%3A6969","udp%3A%2F%2Fexodus.desync.com%3A6969"],"infoHash":"b606a0018a148ebb58f4d6f4f62d55ebc9b8d306","infoHashBuffer":{"type":"Buffer","data":[182,6,160,1,138,20,142,187,88,244,214,244,246,45,85,235,201,184,211,6]},"announce":[],"urlList":[]}}